<svg width="19" height="19" viewBox="0 0 19 19" fill="none" xmlns="http://www.w3.org/2000/svg">
<path d="M4.45248 11.5251C4.56498 11.493 4.65338 11.4688 4.74177 11.4367C6.50159 10.7858 8.14891 11.2117 9.32213 12.6581C9.55516 12.9474 9.7882 13.0921 10.1659 13.0519C10.4873 13.0197 10.8087 13.0438 11.1302 13.0438C12.0944 13.0599 12.665 13.6787 12.5927 14.643C12.5927 14.6912 12.5846 14.7474 12.665 14.8921C13.0266 14.6188 13.4203 14.3858 13.7498 14.0724C14.4248 13.4376 15.0516 12.7626 15.7186 12.1197C16.1766 11.6778 16.7471 11.5894 17.2775 11.8385C17.8078 12.0956 18.1614 12.6421 18.0569 13.2046C18.0007 13.526 17.8319 13.8715 17.6069 14.1126C16.8757 14.9001 16.1123 15.6474 15.3409 16.3947C14.2319 17.4715 12.89 18.0019 11.3471 18.0099C10.0453 18.0179 8.75159 18.0099 7.4498 18.0099C7.17659 18.0099 6.90338 18.0019 6.91141 17.6403C6.91945 17.3188 7.18463 17.2867 7.44177 17.2947C8.71141 17.2947 9.98909 17.2867 11.2587 17.2947C12.7293 17.3028 13.9748 16.7724 15.0034 15.7358C15.6784 15.0528 16.3694 14.3697 17.0525 13.6947C17.4302 13.3171 17.4703 12.8992 17.165 12.6019C16.8596 12.3046 16.4819 12.3447 16.1043 12.7224C15.4855 13.3331 14.8748 13.9519 14.2561 14.5706C13.4525 15.3822 12.4802 15.7921 11.3391 15.784C10.1498 15.776 8.95248 15.784 7.7632 15.776C7.61855 15.776 7.4498 15.7197 7.32927 15.6394C7.26498 15.5912 7.23284 15.3662 7.28105 15.326C7.40963 15.2135 7.58641 15.093 7.73909 15.093C8.78373 15.0688 9.82837 15.0849 10.873 15.0849C11.0096 15.0849 11.1382 15.093 11.2748 15.0769C11.6525 15.0367 11.8936 14.7715 11.8936 14.418C11.8936 14.0563 11.6525 13.7831 11.2668 13.7671C10.7605 13.743 10.2462 13.743 9.73998 13.759C9.44266 13.7671 9.23373 13.6706 9.05695 13.4376C8.4623 12.6421 7.73909 12.0394 6.71052 11.8867C5.97927 11.7822 5.29623 11.9108 4.66141 12.2724C4.54088 12.3447 4.43641 12.5617 4.43641 12.7144C4.42034 14.4662 4.42838 16.226 4.42838 17.9778C4.42838 18.5403 4.37213 18.5885 3.80159 18.5965C2.74088 18.5965 1.6882 18.5965 0.627483 18.5965C0.169448 18.5965 0.0810547 18.5081 0.0810547 18.0581C0.0810547 15.7438 0.0810547 13.4215 0.0810547 11.1072C0.0810547 10.6733 0.185519 10.5688 0.635519 10.5688C1.66409 10.5688 2.7007 10.5688 3.72927 10.5688C4.39623 10.5688 4.42034 10.593 4.43641 11.268C4.43641 11.3403 4.44445 11.4206 4.45248 11.5251ZM0.812305 11.3001C0.812305 13.5019 0.812305 15.6715 0.812305 17.8412C1.79266 17.8412 2.74891 17.8412 3.70516 17.8412C3.70516 15.6474 3.70516 13.4858 3.70516 11.3001C2.74088 11.3001 1.8007 11.3001 0.812305 11.3001Z" fill="#83909E"/>
<path d="M13.7259 0.588623C15.1643 0.588623 16.3134 1.76184 16.3134 3.20023C16.3054 4.63862 15.1322 5.8038 13.7098 5.79577C12.2875 5.78773 11.1063 4.59844 11.1143 3.17612C11.1143 1.7538 12.2875 0.588623 13.7259 0.588623ZM15.5982 3.20827C15.6063 2.12344 14.7786 1.3038 13.6938 1.3038C12.6732 1.3038 11.8295 2.13952 11.8134 3.16005C11.7973 4.21273 12.6572 5.08059 13.7098 5.08862C14.7545 5.08862 15.5902 4.25291 15.5982 3.20827Z" fill="#83909E"/>
<path d="M12.3275 8.24658C12.3356 9.69301 11.1865 10.8582 9.74806 10.8662C8.32574 10.8743 7.12842 9.693 7.12842 8.27068C7.12842 6.83229 8.28556 5.66711 9.72395 5.65104C11.1463 5.63497 12.3195 6.80818 12.3275 8.24658ZM11.6284 8.27872C11.6365 7.23408 10.8088 6.38229 9.76413 6.37426C8.71145 6.36622 7.83556 7.21801 7.8436 8.27068C7.8436 9.29925 8.70342 10.1591 9.73199 10.1591C10.7766 10.151 11.6204 9.31533 11.6284 8.27872Z" fill="#83909E"/>
<path d="M5.62568 18.1706C5.48104 17.9215 5.32836 17.7688 5.34443 17.6322C5.3605 17.5197 5.56139 17.4233 5.68193 17.3188C5.78639 17.4474 5.96318 17.568 5.97925 17.7126C5.98729 17.8251 5.80247 17.9537 5.62568 18.1706Z" fill="#83909E"/>
</svg>
