<svg width="33" height="33" viewBox="0 0 33 33" fill="none" xmlns="http://www.w3.org/2000/svg">
<path d="M13.374 24.4668L8.56458 19.6574C8.43985 19.5328 8.3409 19.3848 8.27339 19.2219C8.20588 19.0591 8.17113 18.8845 8.17113 18.7082C8.17113 18.5319 8.20588 18.3573 8.27339 18.1945C8.3409 18.0316 8.43985 17.8837 8.56458 17.7591L17.6399 8.677H24.3477V15.3847L15.2656 24.4668C15.0142 24.7166 14.6742 24.8569 14.3198 24.8569C13.9654 24.8569 13.6254 24.7166 13.374 24.4668Z" stroke="#728190" stroke-linecap="round" stroke-linejoin="round"/>
<path d="M16.3303 18.686C16.5291 18.4871 16.6264 18.2494 16.6221 17.9727C16.6199 17.6982 16.5086 17.3404 16.2881 16.8995C15.9682 16.2986 15.8147 15.7798 15.8277 15.3432C15.845 14.9065 16.0277 14.5142 16.3757 14.1662C16.7302 13.8117 17.1236 13.6236 17.5559 13.602C17.9903 13.5826 18.4097 13.7317 18.8139 14.0495L19.524 13.3394L20.0071 13.8225L19.2938 14.5358C19.6072 14.9487 19.7369 15.3831 19.6828 15.8392C19.631 16.2975 19.3835 16.7482 18.9403 17.1913L18.3438 16.5947C18.6485 16.2899 18.8182 15.9754 18.8528 15.6512C18.8874 15.3269 18.7815 15.0416 18.5351 14.7952C18.2778 14.538 18.0141 14.4083 17.7439 14.4061C17.4759 14.4018 17.223 14.5185 16.9852 14.7563C16.7647 14.9768 16.6599 15.2243 16.6707 15.4988C16.6858 15.7733 16.8036 16.1289 17.0241 16.5655C17.2489 17.0021 17.3884 17.3772 17.4424 17.6906C17.5008 18.004 17.4878 18.2894 17.4035 18.5466C17.3213 18.806 17.1657 19.0502 16.9366 19.2793C16.5713 19.6446 16.1671 19.8284 15.724 19.8305C15.283 19.8349 14.8442 19.6598 14.4076 19.3053L13.7883 19.9246L13.3084 19.4447L13.9277 18.8254C13.5624 18.3866 13.3895 17.9284 13.4089 17.4507C13.4327 16.973 13.6586 16.5201 14.0866 16.0921L14.6864 16.692C14.386 16.9924 14.2336 17.3026 14.2292 17.6225C14.2249 17.9424 14.3676 18.2472 14.6572 18.5369C14.9404 18.82 15.2311 18.9746 15.5294 19.0005C15.8277 19.0264 16.0947 18.9216 16.3303 18.686Z" fill="#728190"/>
</svg>
