<svg width="15" height="17" viewBox="0 0 15 17" fill="none" xmlns="http://www.w3.org/2000/svg">
<path d="M2.85723 13.8169C2.25115 13.8169 1.68942 13.8243 1.12029 13.8169C0.344214 13.8095 -0.0253476 13.3808 0.107695 12.5974C0.240737 11.8361 0.410735 11.0822 0.565951 10.3209C1.17942 7.3422 1.7855 4.37092 2.41376 1.39965C2.48767 1.05226 2.64289 0.690089 2.86462 0.416614C3.01245 0.21705 3.33766 0.0544434 3.58896 0.0544434C5.34068 0.0618346 7.10719 0.0248784 8.85152 0.194877C10.4702 0.350093 11.638 1.24443 12.0593 2.91485C12.0889 3.02572 12.1997 3.15137 12.3032 3.19572C14.1954 3.9644 14.8015 5.56091 14.5649 7.37915C14.2397 9.82565 12.7837 11.2891 10.4406 11.9395C9.49456 12.2056 8.5337 12.3165 7.55805 12.3017C7.0111 12.2943 6.83371 12.4421 6.72285 12.9817C6.55285 13.7726 6.39763 14.5708 6.23502 15.3691C6.05024 16.2782 5.6659 16.5886 4.72721 16.5886C4.30591 16.5886 3.892 16.5886 3.4707 16.5886C2.84984 16.5812 2.48767 16.2412 2.53202 15.613C2.56897 15.1104 2.70202 14.6226 2.79071 14.1273C2.82028 14.0313 2.83506 13.9278 2.85723 13.8169ZM12.1776 3.86093C12.1702 4.03092 12.1702 4.1344 12.1628 4.24527C12.0371 6.04134 11.2906 7.48263 9.72368 8.44349C8.35631 9.2787 6.82632 9.50782 5.25938 9.54478C4.49069 9.56695 4.39461 9.62609 4.24678 10.4022C4.09157 11.2004 3.92896 11.9913 3.76635 12.7895C3.58896 13.6543 3.41157 14.5265 3.23418 15.3912C3.14549 15.8421 3.20462 15.916 3.65548 15.916C4.062 15.916 4.46852 15.916 4.87504 15.916C5.3259 15.916 5.4959 15.7756 5.5846 15.3395C5.75459 14.5043 5.9172 13.6765 6.09459 12.8487C6.27198 11.9987 6.68589 11.6513 7.55066 11.6439C8.63717 11.6365 9.7089 11.5256 10.7511 11.1782C12.961 10.4391 14.2471 8.39175 13.9293 6.08569C13.7667 5.02874 13.205 4.29701 12.1776 3.86093ZM11.3941 2.92224C11.2906 2.67094 11.2241 2.45659 11.1132 2.27181C10.5293 1.274 9.56847 0.860087 8.48935 0.793566C7.0111 0.69748 5.51807 0.719654 4.02505 0.69748C3.33766 0.690089 3.19723 0.81574 3.0568 1.48095C2.45071 4.44483 1.84463 7.40872 1.23116 10.3726C1.07595 11.1413 0.913339 11.91 0.765514 12.6861C0.691602 13.0852 0.780296 13.1665 1.17942 13.1739C1.54898 13.1739 1.91855 13.1739 2.28811 13.1739C2.8868 13.1739 3.01245 13.0704 3.13071 12.4865C3.70722 9.68521 4.27635 6.89133 4.85286 4.09005C5.05243 3.1218 5.45155 2.7892 6.4272 2.79659C7.7724 2.80398 9.11021 2.81137 10.4554 2.83355C10.7437 2.84094 11.0393 2.88528 11.3941 2.92224ZM4.53504 8.93131C5.39242 8.86479 6.17589 8.84262 6.95197 8.73175C8.35631 8.53218 9.61282 8.00741 10.5293 6.87655C11.2906 5.93786 11.5271 4.82918 11.4902 3.61702C11.1428 3.57267 10.8398 3.50615 10.5367 3.49876C9.12499 3.46919 7.70588 3.45441 6.29415 3.43963C5.85807 3.43224 5.65112 3.58006 5.55503 4.00875C5.21503 5.62004 4.88243 7.23872 4.53504 8.93131Z" fill="#83909E"/>
</svg>
