<svg width="5" height="8" viewBox="0 0 5 8" fill="none" xmlns="http://www.w3.org/2000/svg">
<path d="M2.894 0.939813C3.46519 0.936112 3.98074 1.07303 4.38873 1.4986C4.9525 2.08328 4.997 2.94181 4.46662 3.5598C4.23295 3.83734 3.96219 4.08528 3.69144 4.32581C3.40584 4.58485 3.23523 4.88459 3.22781 5.27685C3.2241 5.40267 3.20927 5.55439 3.06462 5.5766C2.90884 5.5988 2.73822 5.5766 2.58245 5.54329C2.53794 5.53219 2.49714 5.41007 2.49714 5.33976C2.48601 4.87349 2.61212 4.44793 2.93851 4.10378C3.16476 3.86694 3.40584 3.64861 3.64693 3.42658C3.99557 3.10833 4.18473 2.73458 3.99557 2.27201C3.81383 1.82424 3.46148 1.57261 2.96818 1.543C2.46376 1.5134 2.08173 1.72433 1.85177 2.1795C1.81097 2.26091 1.7813 2.34972 1.74792 2.43853C1.66261 2.66427 1.46233 2.77528 1.25462 2.71237C1.0395 2.64576 0.939357 2.43483 1.01354 2.1906C1.22495 1.46529 1.84064 0.99162 2.63437 0.939813C2.71968 0.932412 2.80869 0.939813 2.894 0.939813Z" fill="#011D27"/>
<path d="M3.29828 6.66086C3.30199 6.89769 3.12025 7.0827 2.88288 7.0901C2.64551 7.0975 2.46006 6.91619 2.45635 6.67567C2.45265 6.43885 2.63438 6.24643 2.86805 6.24273C3.098 6.23903 3.29458 6.43144 3.29828 6.66086Z" fill="#011D27"/>
</svg>
