<svg width="20" height="22" viewBox="0 0 20 22" fill="none" xmlns="http://www.w3.org/2000/svg">
<path d="M19.0811 14.5866V6.58657C19.0807 6.23585 18.9881 5.89138 18.8126 5.58773C18.6371 5.28409 18.3848 5.03193 18.0811 4.85657L11.0811 0.856572C10.777 0.681035 10.4321 0.588623 10.0811 0.588623C9.72998 0.588623 9.38509 0.681035 9.08105 0.856572L2.08105 4.85657C1.77732 5.03193 1.52503 5.28409 1.34952 5.58773C1.174 5.89138 1.08141 6.23585 1.08105 6.58657V14.5866C1.08141 14.9373 1.174 15.2818 1.34952 15.5854C1.52503 15.8891 1.77732 16.1412 2.08105 16.3166L9.08105 20.3166C9.38509 20.4921 9.72998 20.5845 10.0811 20.5845C10.4321 20.5845 10.777 20.4921 11.0811 20.3166L18.0811 16.3166C18.3848 16.1412 18.6371 15.8891 18.8126 15.5854C18.9881 15.2818 19.0807 14.9373 19.0811 14.5866Z" stroke="#728190" stroke-linecap="round" stroke-linejoin="round"/>
<path d="M1.35107 5.54663L10.0811 10.5966L18.8111 5.54663" stroke="#728190" stroke-linecap="round" stroke-linejoin="round"/>
<path d="M10.0811 20.6667V10.5867" stroke="#728190" stroke-linecap="round" stroke-linejoin="round"/>
</svg>
