<svg width="14" height="18" viewBox="0 0 14 18" fill="none" xmlns="http://www.w3.org/2000/svg">
<path d="M3.401 6.04102C2.58108 5.35138 2.61939 4.66932 3.5236 3.94937C3.28606 3.13848 3.06383 2.31244 2.8033 1.49397C2.69602 1.1681 2.79564 0.963478 3.0715 0.796753C3.55425 0.493616 4.1213 0.52393 4.61172 0.872537C5.12512 1.24388 5.27072 1.24388 5.78412 0.85738C6.25155 0.501195 6.90289 0.501195 7.38565 0.85738C7.92971 1.25146 8.02166 1.25146 8.58871 0.85738C9.05614 0.531509 9.62318 0.508773 10.0983 0.804331C10.3741 0.971057 10.4738 1.17567 10.3665 1.50155C10.1059 2.32001 9.88372 3.13848 9.64617 3.95695C10.5427 4.6769 10.5887 5.35896 9.76877 6.04859C9.86073 6.20016 9.95268 6.36689 10.0523 6.51846C10.8339 7.74616 11.6538 8.95113 12.3971 10.2016C14.2898 13.3769 12.037 17.4314 8.30518 17.5602C7.15576 17.5981 6.00635 17.5981 4.85693 17.5602C1.12515 17.4389 -1.12771 13.3845 0.764997 10.2016C1.53128 8.92081 2.36652 7.67795 3.17111 6.41994C3.24774 6.29868 3.31671 6.18501 3.401 6.04102ZM6.57339 16.9388C6.57339 16.9236 6.57339 16.9085 6.57339 16.8857C7.17109 16.8857 7.77645 16.9009 8.37415 16.8781C9.32433 16.8403 10.1672 16.4992 10.8875 15.893C12.5887 14.4531 12.9029 12.2174 11.6845 10.2849C10.9872 9.18606 10.2515 8.10992 9.56954 6.9959C9.23238 6.44267 8.91054 5.98797 8.15959 6.16227C8.14426 6.16227 8.1366 6.16227 8.12127 6.16227C7.89139 6.15469 7.73047 6.0107 7.78411 5.80609C7.81476 5.68483 8.00633 5.54084 8.14426 5.51811C8.44311 5.47263 8.75729 5.51053 9.0638 5.50295C9.4546 5.49537 9.69215 5.31349 9.67682 5.02551C9.65383 4.66932 9.40096 4.57838 9.08679 4.5708C7.42396 4.5708 5.7688 4.5708 4.10597 4.5708C3.69985 4.5708 3.48529 4.75269 3.50061 5.04066C3.50828 5.32864 3.7305 5.48779 4.13662 5.49537C4.45846 5.50295 4.7803 5.47263 5.09447 5.51811C5.20942 5.53326 5.39332 5.71514 5.39332 5.81366C5.39332 5.92734 5.2324 6.10164 5.1098 6.13196C4.87992 6.18501 4.62704 6.13196 4.3895 6.16227C4.26689 6.17743 4.11364 6.24563 4.05233 6.34415C3.11747 7.77647 2.1443 9.18606 1.29373 10.6638C-0.123886 13.1117 1.41633 16.3022 4.22858 16.7872C4.97953 16.9312 5.78412 16.8933 6.57339 16.9388ZM4.20559 3.91148C5.74581 3.91148 7.24772 3.91148 8.75729 3.9039C8.83391 3.9039 8.96418 3.8357 8.98717 3.77507C9.23238 2.97176 9.46226 2.16845 9.69981 1.36513C9.30901 1.22872 9.22472 1.2363 8.94886 1.43334C8.17491 1.96383 7.77645 1.96383 7.01783 1.41818C6.73431 1.21357 6.46611 1.20599 6.17493 1.4106C5.378 1.97141 5.03317 1.97141 4.21325 1.41818C3.99103 1.26661 3.76115 1.19841 3.47762 1.37271C3.71517 2.21392 3.95272 3.03996 4.20559 3.91148Z" fill="#728190"/>
</svg>
