<svg width="46" height="12" viewBox="0 0 46 12" fill="none" xmlns="http://www.w3.org/2000/svg">
<g clip-path="url(#clip0)">
<path d="M4.14748 4.10253C3.79725 5.54918 3.46545 6.91395 3.11522 8.27871C3.05992 8.50617 3.12444 8.83372 2.74656 8.87921C2.30416 8.9338 1.8802 8.9338 1.57605 8.54257C1.44702 8.3697 1.36407 8.17863 1.31799 7.96937C0.884805 6.23157 0.460842 4.50287 0.0276624 2.76507C-0.0368538 2.50121 0.0184458 2.43752 0.285727 2.43752C1.40093 2.41933 1.40093 2.41023 1.6037 3.50204C1.83411 4.73033 2.08296 5.95861 2.34103 7.29608C2.70047 5.79484 3.04149 4.40278 3.33642 2.99253C3.42858 2.5467 3.59448 2.41023 4.05531 2.43752C4.92167 2.47392 4.92167 2.44662 5.08757 3.25638C5.35485 4.55746 5.67743 5.85853 5.92628 7.1869C6.0461 6.57731 6.16591 5.96771 6.29494 5.35812C6.47928 4.48467 6.67282 3.61122 6.83872 2.73777C6.88481 2.51031 6.97697 2.44662 7.19817 2.43752C8.30416 2.40113 8.29494 2.39203 8.01845 3.43835C7.58527 5.04877 7.17052 6.65919 6.72812 8.26052C6.66361 8.49707 6.72812 8.84281 6.32259 8.87921C5.89863 8.9156 5.4931 8.89741 5.18895 8.53347C5.0507 8.3697 4.97697 8.16953 4.93089 7.96027C4.66361 6.70468 4.35024 5.4582 4.14748 4.10253Z" fill="#007DC5"/>
<path d="M16.507 4.64844C17.6222 3.65671 18.5531 3.7022 19.3457 4.74852C19.6037 4.43008 19.8987 4.15712 20.295 4.02065C21.2719 3.6931 22.166 4.16622 22.4332 5.15795C22.5899 5.75845 22.5162 6.36804 22.5254 6.96854C22.5346 7.45076 22.5254 7.94207 22.5254 8.42429C22.5254 8.51527 22.5623 8.64265 22.5162 8.68814C22.1936 8.97929 21.7973 8.76093 21.4471 8.81552C21.2166 8.85191 21.2259 8.67904 21.2259 8.52437C21.2259 7.7965 21.2259 7.06862 21.2259 6.34075C21.2259 6.14058 21.2166 5.94951 21.1798 5.75845C21.0784 5.23074 20.7835 4.96688 20.3687 5.00328C19.9355 5.03967 19.613 5.38541 19.5945 5.87673C19.5761 6.54091 19.5853 7.2142 19.5853 7.87838C19.5853 8.04215 19.5669 8.21502 19.5853 8.3788C19.6314 8.73363 19.5116 8.84282 19.1429 8.83372C18.2766 8.80642 18.2766 8.83372 18.2766 7.97846C18.2766 7.41436 18.2766 6.85936 18.2766 6.29525C18.2766 6.17697 18.2766 6.0496 18.2673 5.93132C18.2028 5.32172 17.9079 4.98508 17.4655 5.00328C17.0047 5.02147 16.6452 5.4582 16.636 6.0314C16.6268 6.83206 16.6176 7.64182 16.636 8.44248C16.6452 8.72454 16.5715 8.83372 16.2581 8.83372C15.318 8.83372 15.318 8.84282 15.318 7.91478C15.318 6.79567 15.3457 5.66746 15.3088 4.54835C15.2904 4.09343 15.4471 3.94786 15.871 4.02065C15.9171 4.02974 15.9632 4.02974 16.0093 4.02065C16.4148 3.96606 16.6637 4.07524 16.507 4.64844Z" fill="#007DC5"/>
<path d="M32.1566 2.44661C32.9216 2.45571 32.811 2.34653 32.8294 3.0744C32.8294 3.1017 32.8294 3.13809 32.8294 3.16539C32.8294 3.94785 32.8294 3.96605 33.6036 3.96605C33.8801 3.96605 34.0092 4.02974 33.9631 4.32089C33.9539 4.37548 33.9631 4.43917 33.9631 4.50286C33.9631 5.18524 33.9631 5.20343 33.2626 5.17614C32.9216 5.16704 32.8018 5.24893 32.8202 5.59467C32.8571 6.12238 32.8202 6.65008 32.8387 7.18689C32.8571 7.7055 33.0322 7.84198 33.5576 7.84198C33.705 7.84198 33.9539 7.7328 33.917 8.01485C33.8801 8.306 34.1843 8.75182 33.6958 8.861C32.6359 9.08846 31.576 8.92469 31.5576 7.40525C31.5391 5.85852 31.5576 4.32089 31.5483 2.77415C31.5207 2.18276 31.9723 2.56489 32.1566 2.44661Z" fill="#007DC5"/>
<path d="M13.0598 5.60376C13.0598 4.66662 13.069 3.72948 13.0598 2.79234C13.0598 2.54669 13.1151 2.4557 13.3916 2.4466C14.3962 2.41931 14.3962 2.41021 14.3962 3.39284C14.3962 5.05785 14.387 6.72286 14.4054 8.38788C14.4054 8.72452 14.3409 8.861 13.963 8.8519C13.0782 8.8246 13.0782 8.8519 13.0782 7.96935C13.0598 7.16869 13.0598 6.38622 13.0598 5.60376Z" fill="#027DC6"/>
<path d="M29.3548 4.90319C29.6405 4.33909 30 4.01155 30.5437 3.92966C30.8294 3.88417 31.0414 3.92056 30.9861 4.2936C30.9769 4.38458 30.9769 4.47557 30.9861 4.56655C31.0322 4.96688 31.0138 5.23983 30.4423 5.20344C29.8986 5.17614 29.5299 5.61287 29.5115 6.18607C29.4838 6.93214 29.4838 7.66912 29.5023 8.41519C29.5115 8.71544 29.447 8.84281 29.1059 8.83372C28.1382 8.82462 28.1382 8.84281 28.1382 7.89658C28.1382 6.74108 28.1566 5.59467 28.129 4.43917C28.1198 4.09343 28.2211 4.00245 28.5622 4.01155C29.2995 4.03884 29.3087 4.02064 29.3548 4.90319Z" fill="#017DC5"/>
<path d="M46.0001 7.94207C45.9632 8.26052 45.825 8.54257 45.5116 8.73364C45.2167 8.91561 44.9955 8.77003 44.7651 8.60626C44.1199 8.15134 43.4747 7.68732 42.8111 7.25059C42.507 7.05042 42.4425 6.82296 42.6268 6.52271C42.8019 6.24066 43.0231 6.19517 43.3273 6.34075C44.083 6.70468 44.848 7.05042 45.613 7.39617C45.8434 7.50535 45.9816 7.66002 46.0001 7.94207Z" fill="#FEC120"/>
<path d="M40.3133 10.2895C40.3778 9.507 40.4516 8.72453 40.5069 7.94207C40.5345 7.63272 40.682 7.46895 40.9953 7.45075C41.3179 7.43256 41.5299 7.55994 41.5576 7.90568C41.6313 8.74273 41.7142 9.58888 41.7787 10.4259C41.8156 10.8809 41.5483 11.1447 41.0599 11.1538C40.5622 11.1629 40.2857 10.8991 40.3041 10.4168C40.3041 10.3804 40.3133 10.335 40.3133 10.2895Z" fill="#FEC120"/>
<path d="M36.083 3.32915C36.1291 3.00161 36.2766 2.71956 36.5899 2.52849C36.8941 2.34652 37.1061 2.52849 37.3365 2.69226C37.9816 3.14718 38.636 3.60211 39.2904 4.03883C39.5669 4.2299 39.6406 4.43916 39.4747 4.73031C39.3088 5.01236 39.0876 5.08515 38.7835 4.93957C38.0001 4.56654 37.2074 4.2117 36.4148 3.84776C36.1844 3.74768 36.0922 3.57481 36.083 3.32915Z" fill="#FEC120"/>
<path d="M36.083 7.96027C36.0922 7.70551 36.1752 7.53264 36.4056 7.43256C37.2074 7.06862 38.0185 6.69559 38.8111 6.32255C39.1153 6.17698 39.3088 6.29526 39.4655 6.55001C39.6222 6.80477 39.6037 7.03223 39.3365 7.2142C38.6729 7.66912 38.0093 8.13314 37.3457 8.59716C37.1153 8.75184 36.9033 8.9338 36.5991 8.76093C36.2766 8.56987 36.1291 8.28782 36.083 7.96027Z" fill="#FEC120"/>
<path d="M45.9999 3.36555C45.9907 3.59301 45.8801 3.75678 45.6589 3.85687C44.8662 4.2208 44.0736 4.58474 43.281 4.94868C42.9861 5.08515 42.7741 4.99417 42.6174 4.73941C42.4607 4.48466 42.4791 4.2572 42.7464 4.06613C43.41 3.61121 44.0828 3.14719 44.7464 2.67407C44.9768 2.5103 45.1888 2.33743 45.493 2.5285C45.8156 2.72866 45.9538 3.01071 45.9999 3.36555Z" fill="#FEC120"/>
<path d="M40.3041 0.863488C40.2857 0.68152 40.258 0.39037 40.5806 0.253894C40.9032 0.117417 41.235 0.108319 41.5576 0.281189C41.7511 0.39037 41.8156 0.56324 41.7972 0.781603C41.7143 1.63685 41.6405 2.50121 41.5668 3.35646C41.5391 3.7022 41.3456 3.82958 41.023 3.82958C40.682 3.82048 40.5438 3.63851 40.5161 3.31097C40.4516 2.5285 40.3779 1.74604 40.3041 0.863488Z" fill="#FEC120"/>
<path d="M12.1845 5.66745C12.1199 4.77581 11.6499 4.18441 10.8665 4.00244C10.0923 3.82047 9.34575 3.92965 8.60842 4.21171C8.07386 4.41187 8.49782 4.74851 8.53469 4.99417C8.58999 5.34901 8.8204 5.08515 8.94022 5.03966C9.38261 4.87589 9.83423 4.8031 10.2951 4.90319C10.6084 4.96687 10.8573 5.17614 10.8112 5.50368C10.7743 5.78573 10.461 5.66745 10.2766 5.68565C9.70519 5.74024 9.1522 5.84942 8.66372 6.17696C8.07386 6.5773 7.83422 7.26877 8.04621 7.94206C8.23975 8.56075 8.80197 8.93379 9.53008 8.93379C10.0646 8.93379 10.5163 8.75182 10.9402 8.33329C11.1798 8.80641 11.5485 8.96108 12.0278 8.88829C12.1568 8.8701 12.2674 8.8428 12.249 8.66083C12.1384 7.66911 12.249 6.66828 12.1845 5.66745ZM10.8941 6.97763C10.8849 7.56902 10.59 7.93296 10.0923 7.98755C9.77893 8.02394 9.49321 7.95116 9.3734 7.63271C9.25358 7.33246 9.29966 7.03222 9.57616 6.81385C9.90796 6.5682 10.3043 6.50451 10.7006 6.5318C11.0508 6.5591 10.8204 6.85025 10.8941 6.97763Z" fill="#007DC5"/>
<path d="M27.318 8.47887C27.2627 8.03305 27.2719 7.56903 27.2535 7.11411H27.2443C27.2443 6.5864 27.2811 6.04959 27.235 5.52188C27.1705 4.65753 26.6267 4.12072 25.7604 3.96605C25.1521 3.85687 24.5714 3.93875 23.9908 4.10253C23.3825 4.2754 23.3917 4.30269 23.5576 4.88499C23.6406 5.18524 23.7604 5.18524 24 5.06696C24.3963 4.87589 24.8203 4.8304 25.2535 4.88499C25.4931 4.91229 25.7051 5.00327 25.8249 5.22163C25.9632 5.46729 26.0092 5.67655 25.5945 5.68565C25.106 5.69475 24.6175 5.76754 24.1567 5.95861C23.189 6.36803 22.7834 7.34157 23.235 8.18772C23.6498 8.96109 24.8019 9.20674 25.6129 8.65174C25.9171 8.45157 26.0922 8.34239 26.3318 8.70633C26.4516 8.8792 26.7005 8.8974 26.9217 8.8974C27.2258 8.91559 27.3549 8.81551 27.318 8.47887ZM25.9539 6.97763C25.9447 7.57813 25.659 7.93296 25.1521 7.98756C24.8387 8.01485 24.5714 7.93296 24.4424 7.61452C24.3226 7.30517 24.3963 7.04132 24.6452 6.84115C24.9678 6.5773 25.3733 6.52271 25.7788 6.55C26.1106 6.5591 25.8802 6.85935 25.9539 6.97763Z" fill="#007DC5"/>
</g>
<defs>
<clipPath id="clip0">
<rect width="46" height="11" fill="white" transform="translate(0 0.153809)"/>
</clipPath>
</defs>
</svg>
