<svg width="48" height="36" viewBox="0 0 48 36" fill="none" xmlns="http://www.w3.org/2000/svg">
<g clip-path="url(#clip0)">
<path d="M47.0062 29.7692C46.4531 31.9043 44.8312 33.5909 42.7781 34.1661C39.0281 35.2385 24 35.2385 24 35.2385C24 35.2385 8.97188 35.2385 5.22188 34.2148C3.20625 33.6396 1.54688 31.914 0.99375 29.7789C0 25.8597 0 17.7678 0 17.7678C0 17.7678 0 9.6271 0.984375 5.76638C1.5375 3.63128 3.15937 1.94465 5.2125 1.36944C9.00937 0.29702 23.9906 0.29702 23.9906 0.29702C23.9906 0.29702 39.0188 0.29702 42.7688 1.32069C44.8219 1.8959 46.4437 3.58253 46.9969 5.71763C48 9.6271 48 17.719 48 17.719C48 17.719 48.0375 25.8597 47.0062 29.7692Z" fill="#F4CB17"/>
<path d="M19.2188 10.2803L31.7156 17.7678L19.2188 25.2455V10.2803Z" fill="white"/>
</g>
<defs>
<clipPath id="clip0">
<rect width="48" height="35" fill="white" transform="matrix(1 0 0 -1 0 35.2385)"/>
</clipPath>
</defs>
</svg>
